<svg xmlns="http://www.w3.org/2000/svg" width="1024" height="1024" viewBox="0 0 1024 1024">
  <defs>
    <linearGradient id="gradient" x1="0%" y1="0%" x2="100%" y2="100%">
      <stop offset="0%" stop-color="#667eea" />
      <stop offset="100%" stop-color="#764ba2" />
    </linearGradient>
    <filter id="shadow" x="-20%" y="-20%" width="140%" height="140%">
      <feGaussianBlur stdDeviation="15" />
    </filter>
  </defs>
  <!-- Background circle -->
  <circle cx="512" cy="512" r="460" fill="url(#gradient)" />
  
  <!-- Mac-style glossy effect -->
  <ellipse cx="512" cy="350" rx="380" ry="200" fill="white" opacity="0.15" />
  
  <!-- Broom icon -->
  <g transform="translate(242, 242) scale(0.53)">
    <path d="M596.1 76.3c-57.6 0-104 46.4-104 104 0 21.4 8.3 41.1 21.2 56.6L9.4 740.1C3.3 746.2 0 752.4 0 760c0 15.6 12.6 28.2 28.2 28.2 7.6 0 13.8-3.3 20-9.4l504-504c15.6 13 35.2 21.2 56.6 21.2 57.6 0 104-46.4 104-104 0-20.7-6.6-39.7-16.9-55.9L559.4 273C546 284.8 528.8 292 510 292c-44.2 0-80-35.8-80-80 0-18.8 7.2-36 19-49.4l137.8-136.5c-16.1-10.3-35.1-16.9-55.8-16.9h-39.8L596.1 76.3z" fill="white" />
  </g>
  
  <!-- Sparkle effect -->
  <circle cx="400" cy="400" r="15" fill="white" />
  <circle cx="350" cy="500" r="10" fill="white" opacity="0.8" />
  <circle cx="650" cy="350" r="12" fill="white" opacity="0.9" />
  <circle cx="700" cy="450" r="8" fill="white" opacity="0.7" />
</svg>
